<mxfile host="app.diagrams.net" modified="2023-06-08T17:28:41.855Z" agent="Mozilla/5.0 (Windows NT 10.0; Win64; x64) AppleWebKit/537.36 (KHTML, like Gecko) Chrome/114.0.0.0 Safari/537.36" etag="miQgZ2m2UIlUop6Ge02u" version="21.3.7" type="device">
  <diagram name="Page-1" id="q0RzE-BLuzRoeGr1_oLp">
    <mxGraphModel dx="1050" dy="570" grid="1" gridSize="10" guides="1" tooltips="1" connect="1" arrows="1" fold="1" page="1" pageScale="1" pageWidth="827" pageHeight="1169" math="0" shadow="0">
      <root>
        <mxCell id="0" />
        <mxCell id="1" parent="0" />
        <mxCell id="MoHb5lMUwLMc8lDkpPRp-1" value="OpenWeatherAPI" style="rounded=1;whiteSpace=wrap;html=1;" parent="1" vertex="1">
          <mxGeometry x="710" y="690" width="120" height="60" as="geometry" />
        </mxCell>
        <mxCell id="MoHb5lMUwLMc8lDkpPRp-43" style="edgeStyle=orthogonalEdgeStyle;rounded=0;orthogonalLoop=1;jettySize=auto;html=1;entryX=0.5;entryY=0;entryDx=0;entryDy=0;" parent="1" source="MoHb5lMUwLMc8lDkpPRp-2" target="MoHb5lMUwLMc8lDkpPRp-6" edge="1">
          <mxGeometry relative="1" as="geometry" />
        </mxCell>
        <mxCell id="MoHb5lMUwLMc8lDkpPRp-45" value="htpp" style="edgeStyle=orthogonalEdgeStyle;rounded=0;orthogonalLoop=1;jettySize=auto;html=1;entryX=1;entryY=0.5;entryDx=0;entryDy=0;" parent="1" source="MoHb5lMUwLMc8lDkpPRp-2" target="MoHb5lMUwLMc8lDkpPRp-13" edge="1">
          <mxGeometry relative="1" as="geometry" />
        </mxCell>
        <mxCell id="MoHb5lMUwLMc8lDkpPRp-2" value="Weather-Service" style="rounded=1;whiteSpace=wrap;html=1;" parent="1" vertex="1">
          <mxGeometry x="914.5" y="790" width="120" height="60" as="geometry" />
        </mxCell>
        <mxCell id="MoHb5lMUwLMc8lDkpPRp-9" value="htpp" style="edgeStyle=orthogonalEdgeStyle;rounded=0;orthogonalLoop=1;jettySize=auto;html=1;entryX=1;entryY=0.5;entryDx=0;entryDy=0;" parent="1" source="MoHb5lMUwLMc8lDkpPRp-3" target="MoHb5lMUwLMc8lDkpPRp-2" edge="1">
          <mxGeometry relative="1" as="geometry" />
        </mxCell>
        <mxCell id="MoHb5lMUwLMc8lDkpPRp-3" value="SC" style="rounded=1;whiteSpace=wrap;html=1;" parent="1" vertex="1">
          <mxGeometry x="1110" y="790" width="120" height="60" as="geometry" />
        </mxCell>
        <mxCell id="MoHb5lMUwLMc8lDkpPRp-4" value="МК&lt;br&gt;" style="text;html=1;strokeColor=none;fillColor=none;align=center;verticalAlign=middle;whiteSpace=wrap;rounded=0;" parent="1" vertex="1">
          <mxGeometry x="1040" y="780" width="60" height="30" as="geometry" />
        </mxCell>
        <mxCell id="MoHb5lMUwLMc8lDkpPRp-44" style="edgeStyle=orthogonalEdgeStyle;rounded=0;orthogonalLoop=1;jettySize=auto;html=1;entryX=0.5;entryY=1;entryDx=0;entryDy=0;" parent="1" source="MoHb5lMUwLMc8lDkpPRp-5" target="MoHb5lMUwLMc8lDkpPRp-6" edge="1">
          <mxGeometry relative="1" as="geometry" />
        </mxCell>
        <mxCell id="MoHb5lMUwLMc8lDkpPRp-5" value="МК" style="rounded=1;whiteSpace=wrap;html=1;" parent="1" vertex="1">
          <mxGeometry x="914.5" y="1010" width="120" height="60" as="geometry" />
        </mxCell>
        <mxCell id="MoHb5lMUwLMc8lDkpPRp-33" style="edgeStyle=orthogonalEdgeStyle;rounded=0;orthogonalLoop=1;jettySize=auto;html=1;entryX=0.5;entryY=1;entryDx=0;entryDy=0;" parent="1" source="MoHb5lMUwLMc8lDkpPRp-13" target="MoHb5lMUwLMc8lDkpPRp-1" edge="1">
          <mxGeometry relative="1" as="geometry" />
        </mxCell>
        <mxCell id="UI3Wtf1sStYkbj6fEMgH-2" style="edgeStyle=orthogonalEdgeStyle;rounded=0;orthogonalLoop=1;jettySize=auto;html=1;entryX=0.987;entryY=0.623;entryDx=0;entryDy=0;entryPerimeter=0;endArrow=none;endFill=0;" edge="1" parent="1" source="MoHb5lMUwLMc8lDkpPRp-13" target="UI3Wtf1sStYkbj6fEMgH-1">
          <mxGeometry relative="1" as="geometry" />
        </mxCell>
        <mxCell id="MoHb5lMUwLMc8lDkpPRp-13" value="WeatherHub" style="rounded=1;whiteSpace=wrap;html=1;" parent="1" vertex="1">
          <mxGeometry x="710" y="790" width="120" height="60" as="geometry" />
        </mxCell>
        <mxCell id="MoHb5lMUwLMc8lDkpPRp-15" value="МК" style="rounded=1;whiteSpace=wrap;html=1;" parent="1" vertex="1">
          <mxGeometry x="1670" y="990" width="120" height="60" as="geometry" />
        </mxCell>
        <mxCell id="MoHb5lMUwLMc8lDkpPRp-18" style="edgeStyle=orthogonalEdgeStyle;rounded=0;orthogonalLoop=1;jettySize=auto;html=1;entryX=0.5;entryY=0;entryDx=0;entryDy=0;" parent="1" source="MoHb5lMUwLMc8lDkpPRp-16" target="MoHb5lMUwLMc8lDkpPRp-17" edge="1">
          <mxGeometry relative="1" as="geometry" />
        </mxCell>
        <mxCell id="MoHb5lMUwLMc8lDkpPRp-16" value="SC" style="rounded=1;whiteSpace=wrap;html=1;" parent="1" vertex="1">
          <mxGeometry x="1670" y="775" width="120" height="60" as="geometry" />
        </mxCell>
        <mxCell id="MoHb5lMUwLMc8lDkpPRp-19" style="edgeStyle=orthogonalEdgeStyle;rounded=0;orthogonalLoop=1;jettySize=auto;html=1;entryX=0.5;entryY=0;entryDx=0;entryDy=0;" parent="1" source="MoHb5lMUwLMc8lDkpPRp-17" target="MoHb5lMUwLMc8lDkpPRp-15" edge="1">
          <mxGeometry relative="1" as="geometry" />
        </mxCell>
        <mxCell id="MoHb5lMUwLMc8lDkpPRp-17" value="Rabbit" style="rounded=1;whiteSpace=wrap;html=1;" parent="1" vertex="1">
          <mxGeometry x="1670" y="890" width="120" height="60" as="geometry" />
        </mxCell>
        <mxCell id="MoHb5lMUwLMc8lDkpPRp-20" value="OpenWeatherAPI" style="rounded=1;whiteSpace=wrap;html=1;" parent="1" vertex="1">
          <mxGeometry x="1900" y="660" width="120" height="60" as="geometry" />
        </mxCell>
        <mxCell id="MoHb5lMUwLMc8lDkpPRp-22" style="edgeStyle=orthogonalEdgeStyle;rounded=0;orthogonalLoop=1;jettySize=auto;html=1;entryX=0.5;entryY=1;entryDx=0;entryDy=0;" parent="1" source="MoHb5lMUwLMc8lDkpPRp-21" target="MoHb5lMUwLMc8lDkpPRp-20" edge="1">
          <mxGeometry relative="1" as="geometry" />
        </mxCell>
        <mxCell id="MoHb5lMUwLMc8lDkpPRp-23" style="edgeStyle=orthogonalEdgeStyle;rounded=0;orthogonalLoop=1;jettySize=auto;html=1;entryX=1;entryY=0.5;entryDx=0;entryDy=0;" parent="1" source="MoHb5lMUwLMc8lDkpPRp-21" target="MoHb5lMUwLMc8lDkpPRp-16" edge="1">
          <mxGeometry relative="1" as="geometry" />
        </mxCell>
        <mxCell id="MoHb5lMUwLMc8lDkpPRp-21" value="STAT" style="rounded=1;whiteSpace=wrap;html=1;" parent="1" vertex="1">
          <mxGeometry x="1900" y="775" width="120" height="60" as="geometry" />
        </mxCell>
        <mxCell id="MoHb5lMUwLMc8lDkpPRp-25" style="edgeStyle=orthogonalEdgeStyle;rounded=0;orthogonalLoop=1;jettySize=auto;html=1;entryX=0.5;entryY=1;entryDx=0;entryDy=0;" parent="1" source="MoHb5lMUwLMc8lDkpPRp-24" target="MoHb5lMUwLMc8lDkpPRp-13" edge="1">
          <mxGeometry relative="1" as="geometry" />
        </mxCell>
        <mxCell id="MoHb5lMUwLMc8lDkpPRp-24" value="w-location" style="shape=cylinder3;whiteSpace=wrap;html=1;boundedLbl=1;backgroundOutline=1;size=15;" parent="1" vertex="1">
          <mxGeometry x="740" y="880" width="60" height="80" as="geometry" />
        </mxCell>
        <mxCell id="MoHb5lMUwLMc8lDkpPRp-34" style="edgeStyle=orthogonalEdgeStyle;rounded=0;orthogonalLoop=1;jettySize=auto;html=1;entryX=0.5;entryY=0;entryDx=0;entryDy=0;endArrow=none;endFill=0;" parent="1" source="MoHb5lMUwLMc8lDkpPRp-27" target="MoHb5lMUwLMc8lDkpPRp-2" edge="1">
          <mxGeometry relative="1" as="geometry" />
        </mxCell>
        <mxCell id="MoHb5lMUwLMc8lDkpPRp-27" value="&lt;br&gt;&lt;br&gt;city" style="shape=note;whiteSpace=wrap;html=1;backgroundOutline=1;darkOpacity=0.05;" parent="1" vertex="1">
          <mxGeometry x="944.5" y="700" width="60" height="60" as="geometry" />
        </mxCell>
        <mxCell id="MoHb5lMUwLMc8lDkpPRp-30" style="edgeStyle=orthogonalEdgeStyle;rounded=0;orthogonalLoop=1;jettySize=auto;html=1;entryX=0.5;entryY=0;entryDx=0;entryDy=0;" parent="1" source="MoHb5lMUwLMc8lDkpPRp-29" target="MoHb5lMUwLMc8lDkpPRp-16" edge="1">
          <mxGeometry relative="1" as="geometry" />
        </mxCell>
        <mxCell id="MoHb5lMUwLMc8lDkpPRp-29" value="&lt;br&gt;&lt;br&gt;city" style="shape=note;whiteSpace=wrap;html=1;backgroundOutline=1;darkOpacity=0.05;" parent="1" vertex="1">
          <mxGeometry x="1700" y="690" width="60" height="60" as="geometry" />
        </mxCell>
        <mxCell id="MoHb5lMUwLMc8lDkpPRp-32" style="edgeStyle=orthogonalEdgeStyle;rounded=0;orthogonalLoop=1;jettySize=auto;html=1;entryX=0.5;entryY=1;entryDx=0;entryDy=0;" parent="1" source="MoHb5lMUwLMc8lDkpPRp-31" target="MoHb5lMUwLMc8lDkpPRp-21" edge="1">
          <mxGeometry relative="1" as="geometry" />
        </mxCell>
        <mxCell id="MoHb5lMUwLMc8lDkpPRp-31" value="&lt;br&gt;&lt;br&gt;API-keys" style="shape=note;whiteSpace=wrap;html=1;backgroundOutline=1;darkOpacity=0.05;" parent="1" vertex="1">
          <mxGeometry x="1930" y="880" width="60" height="60" as="geometry" />
        </mxCell>
        <mxCell id="MoHb5lMUwLMc8lDkpPRp-37" value="" style="group" parent="1" vertex="1" connectable="0">
          <mxGeometry x="914.5" y="860" width="120" height="120" as="geometry" />
        </mxCell>
        <mxCell id="MoHb5lMUwLMc8lDkpPRp-6" value="Rabbit" style="rounded=1;whiteSpace=wrap;html=1;horizontal=1;verticalAlign=top;" parent="MoHb5lMUwLMc8lDkpPRp-37" vertex="1">
          <mxGeometry y="20" width="120" height="100" as="geometry" />
        </mxCell>
        <mxCell id="MoHb5lMUwLMc8lDkpPRp-36" value="mc-queue" style="rounded=1;whiteSpace=wrap;html=1;" parent="MoHb5lMUwLMc8lDkpPRp-37" vertex="1">
          <mxGeometry x="20" y="50" width="88" height="50" as="geometry" />
        </mxCell>
        <mxCell id="UI3Wtf1sStYkbj6fEMgH-4" value="" style="group" vertex="1" connectable="0" parent="1">
          <mxGeometry x="600" y="775" width="70" height="68" as="geometry" />
        </mxCell>
        <mxCell id="UI3Wtf1sStYkbj6fEMgH-3" value="&lt;br&gt;&lt;br&gt;w-data" style="shape=note;whiteSpace=wrap;html=1;backgroundOutline=1;darkOpacity=0.05;" vertex="1" parent="UI3Wtf1sStYkbj6fEMgH-4">
          <mxGeometry width="60" height="60" as="geometry" />
        </mxCell>
        <mxCell id="UI3Wtf1sStYkbj6fEMgH-1" value="&lt;br&gt;&lt;br&gt;w-data" style="shape=note;whiteSpace=wrap;html=1;backgroundOutline=1;darkOpacity=0.05;" vertex="1" parent="UI3Wtf1sStYkbj6fEMgH-4">
          <mxGeometry x="10" y="8" width="60" height="60" as="geometry" />
        </mxCell>
      </root>
    </mxGraphModel>
  </diagram>
</mxfile>
